<svg width="24" height="25" viewBox="0 0 24 25" fill="none" xmlns="http://www.w3.org/2000/svg">
<path d="M16.75 4.00678V2.44678C16.75 2.03678 16.41 1.69678 16 1.69678C15.59 1.69678 15.25 2.03678 15.25 2.44678V3.94678H8.74999V2.44678C8.74999 2.03678 8.40999 1.69678 7.99999 1.69678C7.58999 1.69678 7.24999 2.03678 7.24999 2.44678V4.00678C4.54999 4.25678 3.23999 5.86678 3.03999 8.25678C3.01999 8.54678 3.25999 8.78678 3.53999 8.78678H20.46C20.75 8.78678 20.99 8.53678 20.96 8.25678C20.76 5.86678 19.45 4.25678 16.75 4.00678Z" fill="#4286F5"/>
<path d="M20 10.2868H4C3.45 10.2868 3 10.7368 3 11.2868V17.4468C3 20.4468 4.5 22.4468 8 22.4468H16C19.5 22.4468 21 20.4468 21 17.4468V11.2868C21 10.7368 20.55 10.2868 20 10.2868ZM9.21 18.6568C9.16 18.6968 9.11 18.7468 9.06 18.7768C9 18.8168 8.94 18.8468 8.88 18.8668C8.82 18.8968 8.76 18.9168 8.7 18.9268C8.63 18.9368 8.57 18.9468 8.5 18.9468C8.37 18.9468 8.24 18.9168 8.12 18.8668C7.99 18.8168 7.89 18.7468 7.79 18.6568C7.61 18.4668 7.5 18.2068 7.5 17.9468C7.5 17.6868 7.61 17.4268 7.79 17.2368C7.89 17.1468 7.99 17.0768 8.12 17.0268C8.3 16.9468 8.5 16.9268 8.7 16.9668C8.76 16.9768 8.82 16.9968 8.88 17.0268C8.94 17.0468 9 17.0768 9.06 17.1168C9.11 17.1568 9.16 17.1968 9.21 17.2368C9.39 17.4268 9.5 17.6868 9.5 17.9468C9.5 18.2068 9.39 18.4668 9.21 18.6568ZM9.21 15.1568C9.02 15.3368 8.76 15.4468 8.5 15.4468C8.24 15.4468 7.98 15.3368 7.79 15.1568C7.61 14.9668 7.5 14.7068 7.5 14.4468C7.5 14.1868 7.61 13.9268 7.79 13.7368C8.07 13.4568 8.51 13.3668 8.88 13.5268C9.01 13.5768 9.12 13.6468 9.21 13.7368C9.39 13.9268 9.5 14.1868 9.5 14.4468C9.5 14.7068 9.39 14.9668 9.21 15.1568ZM12.71 18.6568C12.52 18.8368 12.26 18.9468 12 18.9468C11.74 18.9468 11.48 18.8368 11.29 18.6568C11.11 18.4668 11 18.2068 11 17.9468C11 17.6868 11.11 17.4268 11.29 17.2368C11.66 16.8668 12.34 16.8668 12.71 17.2368C12.89 17.4268 13 17.6868 13 17.9468C13 18.2068 12.89 18.4668 12.71 18.6568ZM12.71 15.1568C12.66 15.1968 12.61 15.2368 12.56 15.2768C12.5 15.3168 12.44 15.3468 12.38 15.3668C12.32 15.3968 12.26 15.4168 12.2 15.4268C12.13 15.4368 12.07 15.4468 12 15.4468C11.74 15.4468 11.48 15.3368 11.29 15.1568C11.11 14.9668 11 14.7068 11 14.4468C11 14.1868 11.11 13.9268 11.29 13.7368C11.38 13.6468 11.49 13.5768 11.62 13.5268C11.99 13.3668 12.43 13.4568 12.71 13.7368C12.89 13.9268 13 14.1868 13 14.4468C13 14.7068 12.89 14.9668 12.71 15.1568ZM16.21 18.6568C16.02 18.8368 15.76 18.9468 15.5 18.9468C15.24 18.9468 14.98 18.8368 14.79 18.6568C14.61 18.4668 14.5 18.2068 14.5 17.9468C14.5 17.6868 14.61 17.4268 14.79 17.2368C15.16 16.8668 15.84 16.8668 16.21 17.2368C16.39 17.4268 16.5 17.6868 16.5 17.9468C16.5 18.2068 16.39 18.4668 16.21 18.6568ZM16.21 15.1568C16.16 15.1968 16.11 15.2368 16.06 15.2768C16 15.3168 15.94 15.3468 15.88 15.3668C15.82 15.3968 15.76 15.4168 15.7 15.4268C15.63 15.4368 15.56 15.4468 15.5 15.4468C15.24 15.4468 14.98 15.3368 14.79 15.1568C14.61 14.9668 14.5 14.7068 14.5 14.4468C14.5 14.1868 14.61 13.9268 14.79 13.7368C14.89 13.6468 14.99 13.5768 15.12 13.5268C15.3 13.4468 15.5 13.4268 15.7 13.4668C15.76 13.4768 15.82 13.4968 15.88 13.5268C15.94 13.5468 16 13.5768 16.06 13.6168C16.11 13.6568 16.16 13.6968 16.21 13.7368C16.39 13.9268 16.5 14.1868 16.5 14.4468C16.5 14.7068 16.39 14.9668 16.21 15.1568Z" fill="#4286F5"/>
</svg>
