<svg width="32" height="33" viewBox="0 0 32 33" fill="none" xmlns="http://www.w3.org/2000/svg">
<path d="M21.5866 2.83337H10.4133C5.55996 2.83337 2.66663 5.72671 2.66663 10.58V21.74C2.66663 26.6067 5.55996 29.5 10.4133 29.5H21.5733C26.4266 29.5 29.32 26.6067 29.32 21.7534V10.58C29.3333 5.72671 26.44 2.83337 21.5866 2.83337ZM16 21.34C13.1466 21.34 10.8266 19.02 10.8266 16.1667C10.8266 13.3134 13.1466 10.9934 16 10.9934C18.8533 10.9934 21.1733 13.3134 21.1733 16.1667C21.1733 19.02 18.8533 21.34 16 21.34ZM23.8933 9.34004C23.8266 9.50004 23.7333 9.64671 23.6133 9.78004C23.48 9.90004 23.3333 9.99337 23.1733 10.06C23.0133 10.1267 22.84 10.1667 22.6666 10.1667C22.3066 10.1667 21.9733 10.0334 21.72 9.78004C21.6 9.64671 21.5066 9.50004 21.44 9.34004C21.3733 9.18004 21.3333 9.00671 21.3333 8.83337C21.3333 8.66004 21.3733 8.48671 21.44 8.32671C21.5066 8.15337 21.6 8.02004 21.72 7.88671C22.0266 7.58004 22.4933 7.43337 22.92 7.52671C23.0133 7.54004 23.0933 7.56671 23.1733 7.60671C23.2533 7.63337 23.3333 7.67337 23.4133 7.72671C23.48 7.76671 23.5466 7.83337 23.6133 7.88671C23.7333 8.02004 23.8266 8.15337 23.8933 8.32671C23.96 8.48671 24 8.66004 24 8.83337C24 9.00671 23.96 9.18004 23.8933 9.34004Z" fill="#4286F5"/>
</svg>
