<svg width="32" height="33" viewBox="0 0 32 33" fill="none" xmlns="http://www.w3.org/2000/svg">
<path fill-rule="evenodd" clip-rule="evenodd" d="M6 2.16675C4.93913 2.16675 3.92172 2.58818 3.17157 3.33832C2.42143 4.08847 2 5.10588 2 6.16675V26.1667C2 27.2276 2.42143 28.245 3.17157 28.9952C3.92172 29.7453 4.93913 30.1667 6 30.1667H26C27.0609 30.1667 28.0783 29.7453 28.8284 28.9952C29.5786 28.245 30 27.2276 30 26.1667V6.16675C30 5.10588 29.5786 4.08847 28.8284 3.33832C28.0783 2.58818 27.0609 2.16675 26 2.16675H6ZM8.204 10.7607C8.83787 10.7607 9.44577 10.5089 9.89398 10.0607C10.3422 9.61252 10.594 9.00462 10.594 8.37075C10.594 7.73688 10.3422 7.12897 9.89398 6.68076C9.44577 6.23255 8.83787 5.98075 8.204 5.98075C7.57013 5.98075 6.96223 6.23255 6.51401 6.68076C6.0658 7.12897 5.814 7.73688 5.814 8.37075C5.814 9.00462 6.0658 9.61252 6.51401 10.0607C6.96223 10.5089 7.57013 10.7607 8.204 10.7607ZM10.204 25.7927V12.6347H6.204V25.7927H10.204ZM12.86 12.6347H16.86V14.3967C17.45 13.4727 18.746 12.2287 21.156 12.2287C24.032 12.2287 25.594 14.1347 25.594 17.7607C25.594 17.9347 25.61 18.7287 25.61 18.7287V25.7907H21.61V18.7307C21.61 17.7607 21.406 15.8547 19.25 15.8547C17.092 15.8547 16.91 18.2507 16.86 19.8187V25.7907H12.86V12.6347Z" fill="#4286F5"/>
</svg>
