<svg width="18" height="21" viewBox="0 0 18 21" fill="none" xmlns="http://www.w3.org/2000/svg">
<path d="M17.62 6.89678C16.57 2.27678 12.54 0.196777 8.99997 0.196777C8.99997 0.196777 8.99997 0.196777 8.98997 0.196777C5.45997 0.196777 1.41997 2.26678 0.369973 6.88678C-0.800027 12.0468 2.35997 16.4168 5.21997 19.1668C6.27997 20.1868 7.63997 20.6968 8.99997 20.6968C10.36 20.6968 11.72 20.1868 12.77 19.1668C15.63 16.4168 18.79 12.0568 17.62 6.89678ZM8.99997 11.9068C7.25997 11.9068 5.84997 10.4968 5.84997 8.75678C5.84997 7.01678 7.25997 5.60678 8.99997 5.60678C10.74 5.60678 12.15 7.01678 12.15 8.75678C12.15 10.4968 10.74 11.9068 8.99997 11.9068Z" fill="#4286F5"/>
</svg>
