<svg width="25" height="24" viewBox="0 0 25 24" fill="none" xmlns="http://www.w3.org/2000/svg">
<path d="M12 21.75C6.35 21.75 1.75 17.15 1.75 11.5C1.75 5.85 6.35 1.25 12 1.25C17.65 1.25 22.25 5.85 22.25 11.5C22.25 17.15 17.65 21.75 12 21.75ZM12 2.75C7.17 2.75 3.25 6.68 3.25 11.5C3.25 16.32 7.17 20.25 12 20.25C16.83 20.25 20.75 16.32 20.75 11.5C20.75 6.68 16.83 2.75 12 2.75Z" fill="#777777"/>
<path d="M22.5 22.75C22.31 22.75 22.12 22.68 21.97 22.53L19.97 20.53C19.68 20.24 19.68 19.76 19.97 19.47C20.26 19.18 20.74 19.18 21.03 19.47L23.03 21.47C23.32 21.76 23.32 22.24 23.03 22.53C22.88 22.68 22.69 22.75 22.5 22.75Z" fill="#777777"/>
</svg>
