<svg width="32" height="33" viewBox="0 0 32 33" fill="none" xmlns="http://www.w3.org/2000/svg">
<g clip-path="url(#clip0_33_2238)">
<path fill-rule="evenodd" clip-rule="evenodd" d="M16 2.83337C8.63596 2.83337 2.66663 8.80271 2.66663 16.1667C2.66663 18.6867 3.36663 21.0467 4.58396 23.0574L3.39463 27.1C3.32634 27.3322 3.32185 27.5784 3.38162 27.8128C3.44139 28.0473 3.56322 28.2613 3.73431 28.4324C3.90539 28.6034 4.1194 28.7253 4.35385 28.785C4.5883 28.8448 4.83452 28.8403 5.06663 28.772L9.10929 27.5827C11.1875 28.8402 13.5709 29.5033 16 29.5C23.364 29.5 29.3333 23.5307 29.3333 16.1667C29.3333 8.80271 23.364 2.83337 16 2.83337ZM12.984 19.184C15.6813 21.88 18.256 22.236 19.1653 22.2694C20.548 22.32 21.8946 21.264 22.4186 20.0387C22.4848 19.8863 22.5088 19.7189 22.4881 19.554C22.4675 19.3891 22.403 19.2328 22.3013 19.1014C21.5706 18.168 20.5826 17.4974 19.6173 16.8307C19.4157 16.6913 19.1681 16.6354 18.9262 16.6747C18.6843 16.714 18.4671 16.8454 18.32 17.0414L17.52 18.2614C17.4779 18.327 17.4124 18.374 17.3368 18.3928C17.2612 18.4117 17.1812 18.4009 17.1133 18.3627C16.5706 18.052 15.78 17.524 15.212 16.956C14.644 16.388 14.148 15.6334 13.8693 15.1254C13.8347 15.0608 13.8248 14.986 13.8412 14.9146C13.8576 14.8433 13.8993 14.7803 13.9586 14.7374L15.1906 13.8227C15.3664 13.6698 15.4799 13.4576 15.5094 13.2265C15.5389 12.9954 15.4824 12.7615 15.3506 12.5694C14.7533 11.6947 14.0573 10.5827 13.048 9.84537C12.9177 9.75098 12.7651 9.69212 12.6052 9.67459C12.4453 9.65705 12.2836 9.68145 12.136 9.74537C10.9093 10.2707 9.84796 11.6174 9.89863 13.0027C9.93196 13.912 10.288 16.4867 12.984 19.184Z" fill="#4286F5"/>
</g>
<defs>
<clipPath id="clip0_33_2238">
<rect width="32" height="32" fill="white" transform="translate(0 0.166748)"/>
</clipPath>
</defs>
</svg>
