<svg width="32" height="33" viewBox="0 0 32 33" fill="none" xmlns="http://www.w3.org/2000/svg">
<path d="M26.8438 26.6305L19.0188 14.333L26.74 5.83925C26.9146 5.6424 27.0046 5.38466 26.9905 5.1219C26.9764 4.85914 26.8592 4.61254 26.6645 4.43557C26.4698 4.25859 26.2131 4.16551 25.9502 4.17649C25.6873 4.18748 25.4393 4.30165 25.26 4.49425L17.905 12.5842L12.8438 4.6305C12.7535 4.48844 12.6289 4.37146 12.4814 4.2904C12.3339 4.20933 12.1683 4.1668 12 4.16675H6.00001C5.82071 4.16666 5.64468 4.21478 5.49037 4.30607C5.33605 4.39736 5.20911 4.52847 5.12285 4.68565C5.03659 4.84284 4.99418 5.02032 5.00006 5.19952C5.00593 5.37873 5.05988 5.55305 5.15626 5.70425L12.9813 18.0005L5.26001 26.5005C5.16984 26.5974 5.09979 26.7111 5.05393 26.8353C5.00806 26.9594 4.98729 27.0914 4.99282 27.2236C4.99834 27.3558 5.03005 27.4856 5.08611 27.6055C5.14217 27.7254 5.22146 27.8329 5.3194 27.9219C5.41733 28.0109 5.53195 28.0796 5.65662 28.124C5.78129 28.1683 5.91352 28.1875 6.04566 28.1804C6.1778 28.1733 6.30722 28.1401 6.42641 28.0826C6.5456 28.0251 6.65219 27.9445 6.74001 27.8455L14.095 19.7555L19.1563 27.7092C19.2472 27.8501 19.3722 27.9659 19.5197 28.0458C19.6671 28.1258 19.8323 28.1674 20 28.1667H26C26.1791 28.1667 26.3549 28.1185 26.509 28.0273C26.6632 27.9361 26.79 27.8051 26.8762 27.6481C26.9624 27.4912 27.0049 27.3139 26.9992 27.1349C26.9935 26.9559 26.9398 26.7817 26.8438 26.6305ZM20.5488 26.1667L7.82126 6.16675H11.4463L24.1788 26.1667H20.5488Z" fill="#4286F5"/>
</svg>
