<svg width="32" height="33" viewBox="0 0 32 33" fill="none" xmlns="http://www.w3.org/2000/svg">
<path d="M13.3333 20.1667L20.2533 16.1667L13.3333 12.1667V20.1667ZM28.7466 9.72671C28.92 10.3534 29.04 11.1934 29.12 12.26C29.2133 13.3267 29.2533 14.2467 29.2533 15.0467L29.3333 16.1667C29.3333 19.0867 29.12 21.2334 28.7466 22.6067C28.4133 23.8067 27.64 24.58 26.44 24.9134C25.8133 25.0867 24.6666 25.2067 22.9066 25.2867C21.1733 25.38 19.5866 25.42 18.12 25.42L16 25.5C10.4133 25.5 6.93329 25.2867 5.55996 24.9134C4.35996 24.58 3.58663 23.8067 3.25329 22.6067C3.07996 21.98 2.95996 21.14 2.87996 20.0734C2.78663 19.0067 2.74663 18.0867 2.74663 17.2867L2.66663 16.1667C2.66663 13.2467 2.87996 11.1 3.25329 9.72671C3.58663 8.52671 4.35996 7.75337 5.55996 7.42004C6.18663 7.24671 7.33329 7.12671 9.09329 7.04671C10.8266 6.95337 12.4133 6.91337 13.88 6.91337L16 6.83337C21.5866 6.83337 25.0666 7.04671 26.44 7.42004C27.64 7.75337 28.4133 8.52671 28.7466 9.72671Z" fill="#4286F5"/>
</svg>
